####
#
# OBJ File Generated by Meshlab
#
####
# Object cbox_largebox.obj
#
# Vertices: 24
# Faces: 12
#
####
vn 0.000000 1.000000 0.000000
v 423.000000 330.000000 247.000000
v 265.000000 330.000000 296.000000
v 314.000000 330.000000 456.000000
v 472.000000 330.000000 406.000000
vn 0.955649 0.000000 -0.294508
v 423.000000 0.000000 247.000000
v 423.000000 330.000000 247.000000
v 472.000000 330.000000 406.000000
v 472.000000 0.000000 406.000000
vn 0.301709 0.000000 0.953400
v 472.000000 0.000000 406.000000
v 472.000000 330.000000 406.000000
v 314.000000 330.000000 456.000000
v 314.000000 0.000000 456.000000
vn -0.956166 0.000000 0.292826
v 314.000000 0.000000 456.000000
v 314.000000 330.000000 456.000000
v 265.000000 330.000000 296.000000
v 265.000000 0.000000 296.000000
vn -0.296209 0.000000 -0.955123
v 265.000000 0.000000 296.000000
v 265.000000 330.000000 296.000000
v 423.000000 330.000000 247.000000
v 423.000000 0.000000 247.000000
vn 0.000000 -1.000000 0.000000
v 472.000000 0.000000 406.000000
v 314.000000 0.000000 456.000000
v 265.000000 0.000000 296.000000
v 423.000000 0.000000 247.000000
vt 0.0 0.0
# 24 vertices, 6 vertices normals

f 1/1/1 2/1/1 3/1/1
f 1/1/1 3/1/1 4/1/1
f 5/1/2 6/1/2 7/1/2
f 5/1/2 7/1/2 8/1/2
f 9/1/3 10/1/3 11/1/3
f 9/1/3 11/1/3 12/1/3
f 13/1/4 14/1/4 15/1/4
f 13/1/4 15/1/4 16/1/4
f 17/1/5 18/1/5 19/1/5
f 17/1/5 19/1/5 20/1/5
f 21/1/6 22/1/6 23/1/6
f 21/1/6 23/1/6 24/1/6
# 12 faces, 0 coords texture

# End of File