####
#
# OBJ File Generated by Meshlab
#
####
# Object cbox_smallbox.obj
#
# Vertices: 24
# Faces: 12
#
####
vn 0.000000 1.000000 0.000000
v 130.000000 165.000000 65.000000
v 82.000000 165.000000 225.000000
v 240.000000 165.000000 272.000000
v 290.000000 165.000000 114.000000
vn 0.953400 0.000000 0.301709
v 290.000000 0.000000 114.000000
v 290.000000 165.000000 114.000000
v 240.000000 165.000000 272.000000
v 240.000000 0.000000 272.000000
vn 0.292826 0.000000 -0.956166
v 130.000000 0.000000 65.000000
v 130.000000 165.000000 65.000000
v 290.000000 165.000000 114.000000
v 290.000000 0.000000 114.000000
vn -0.957826 0.000000 -0.287348
v 82.000000 0.000000 225.000000
v 82.000000 165.000000 225.000000
v 130.000000 165.000000 65.000000
v 130.000000 0.000000 65.000000
vn -0.285121 0.000000 0.958492
v 240.000000 0.000000 272.000000
v 240.000000 165.000000 272.000000
v 82.000000 165.000000 225.000000
v 82.000000 0.000000 225.000000
vn 0.000000 -1.000000 0.000000
v 290.000000 0.000000 114.000000
v 240.000000 0.000000 272.000000
v 82.000000 0.000000 225.000000
v 130.000000 0.000000 65.000000
vt 0.0 0.0
# 24 vertices, 6 vertices normals

f 1/1/1 2/1/1 3/1/1
f 1/1/1 3/1/1 4/1/1
f 5/1/2 6/1/2 7/1/2
f 5/1/2 7/1/2 8/1/2
f 9/1/3 10/1/3 11/1/3
f 9/1/3 11/1/3 12/1/3
f 13/1/4 14/1/4 15/1/4
f 13/1/4 15/1/4 16/1/4
f 17/1/5 18/1/5 19/1/5
f 17/1/5 19/1/5 20/1/5
f 21/1/6 22/1/6 23/1/6
f 21/1/6 23/1/6 24/1/6
# 12 faces, 0 coords texture

# End of File